<svg width="32" height="32" viewBox="0 0 32 32"  xmlns="http://www.w3.org/2000/svg">
<path fill="currentColor" d="M7.289 17.345c-0.657-2.907-0.767-5.766-0.369-8.714 2.192 0.809 4.068 2.098 5.841 3.679 0.707-2.814 1.902-5.335 3.583-7.656 1.678 2.303 2.872 4.821 3.584 7.661 1.761-1.576 3.641-2.855 5.844-3.689 0.413 2.939 0.289 5.802-0.346 8.638 1.048-0.112 2.084-0.277 3.123-0.319 1.032-0.042 2.070 0.040 3.189 0.069-0.203 0.463-0.35 0.823-0.516 1.174-1.312 2.78-3.065 5.169-5.57 6.874-1.997 1.359-4.225 2.043-6.573 2.18-2.133 0.125-4.276 0.184-6.41-0.1-4.013-0.534-7.159-2.585-9.521-6.010-0.858-1.243-1.571-2.57-2.155-4.045 2.109-0.29 4.176-0.218 6.295 0.257h0.001zM16.368 25.087c1.723-2.975 2.797-6.063 2.665-9.508-0.117-3.063-1.142-5.823-2.692-8.481-1.706 2.994-2.808 6.082-2.686 9.53 0.108 3.058 1.15 5.803 2.713 8.459v0.001zM3.026 18.316c1.43 2.631 3.173 4.806 5.712 6.146 2.033 1.073 4.21 1.462 6.52 1.443-0.309-0.57-0.626-1.050-0.842-1.576-0.404-0.982-1.054-1.75-1.777-2.471-2.675-2.667-5.936-3.574-9.613-3.543v0.001zM29.645 18.35c-1.347-0.134-3.542 0.135-5.101 0.712-2.731 1.010-5.034 2.594-6.327 5.467-0.206 0.458-0.482 0.882-0.76 1.383 2.591-0.007 5.013-0.477 7.212-1.863 2.175-1.37 3.714-3.364 4.976-5.698zM12.798 20.137c-0.029-0.184-0.037-0.257-0.054-0.329-0.433-1.853-0.559-3.724-0.321-5.621 0.017-0.132-0.067-0.321-0.164-0.42-1.166-1.188-2.484-2.156-3.919-2.95-0.080-0.044-0.17-0.069-0.282-0.114-0.093 2.174 0.045 4.276 0.539 6.352 0.129 0.543 0.364 0.834 0.871 1.023 1.192 0.446 2.254 1.155 3.33 2.059zM24.637 10.736c-0.063-0.003-0.091-0.014-0.109-0.005-1.543 0.81-2.929 1.854-4.17 3.111-0.071 0.072-0.107 0.232-0.093 0.341 0.24 1.871 0.12 3.72-0.297 5.551-0.020 0.089-0.015 0.183-0.025 0.304 0.075-0.033 0.112-0.041 0.138-0.063 1.095-0.904 2.3-1.601 3.602-2.118 0.126-0.050 0.245-0.239 0.288-0.389 0.622-2.193 0.767-4.44 0.667-6.735z"></path>
</svg>