<svg width="19" height="19" viewBox="0 0 19 19" fill="none" xmlns="http://www.w3.org/2000/svg">
<path d="M13.403 0.912523L13.7514 1.35722L14.0998 0.911845C14.3024 0.653856 14.5532 0.440928 14.8371 0.285817C15.1211 0.130707 15.4323 0.0366057 15.7521 0.00915232C16.0719 -0.018301 16.3938 0.0214581 16.6984 0.126048C17.0031 0.230638 17.2843 0.397905 17.5251 0.61783C17.7659 0.837754 17.9614 1.10581 18.0999 1.40593C18.2384 1.70606 18.317 2.03208 18.331 2.36446C18.3451 2.69684 18.2943 3.02874 18.1817 3.34027C18.069 3.65181 17.8969 3.93657 17.6756 4.17749L14.1915 7.95437C14.1346 8.01588 14.0664 8.06483 13.9908 8.09827C13.9152 8.1317 13.8339 8.14894 13.7517 8.14894C13.6696 8.14894 13.5882 8.1317 13.5127 8.09827C13.4371 8.06483 13.3688 8.01588 13.312 7.95437L9.82856 4.1741C9.60721 3.93336 9.43504 3.64875 9.32237 3.33735C9.20971 3.02594 9.15887 2.69416 9.1729 2.36189C9.18694 2.02962 9.26556 1.70372 9.40405 1.40371C9.54254 1.10371 9.73804 0.835797 9.97884 0.616034C10.2196 0.396271 10.5008 0.229187 10.8054 0.124803C11.11 0.0204198 11.4318 -0.0191136 11.7515 0.00857396C12.0712 0.0362615 12.3822 0.1306 12.6659 0.285931C12.9496 0.441262 13.2007 0.654387 13.403 0.912523ZM8.13105 1.38098L7.99484 1.23773C7.7924 1.02403 7.54357 0.863658 7.26912 0.770034C6.99468 0.67641 6.70261 0.652249 6.41732 0.69957C6.13203 0.746892 5.86181 0.86432 5.62925 1.04204C5.39669 1.21976 5.20854 1.45261 5.08053 1.72113C4.865 1.60692 4.6296 1.53859 4.3882 1.52015C4.1468 1.50171 3.90428 1.53354 3.67493 1.61376C3.44558 1.69399 3.23404 1.82099 3.05276 1.98727C2.87149 2.15356 2.72415 2.35578 2.61942 2.58201C2.25835 2.40423 1.84874 2.36272 1.4613 2.46463C1.07386 2.56655 0.732893 2.8055 0.497268 3.14023C0.261642 3.47497 0.146141 3.88448 0.170702 4.29809C0.195263 4.71169 0.358346 5.10343 0.631798 5.40568L0.916024 5.71934C0.680706 5.85353 0.477963 6.04152 0.323184 6.26906C0.168404 6.49659 0.0656532 6.75769 0.0227297 7.03253C-0.0201938 7.30737 -0.00216256 7.58874 0.0754553 7.85528C0.153073 8.12182 0.288238 8.36653 0.470692 8.57084L3.84932 12.3457C3.08505 12.5249 2.09681 12.9567 1.48644 13.9955C1.19305 14.4952 1.28604 15.037 1.56045 15.4131C1.81848 15.7675 2.23696 15.9902 2.68229 16.0105C4.74719 16.1029 7.24301 16.885 9.35441 17.9387C10.8378 18.6781 12.7435 18.3949 13.7972 16.9502L15.0547 15.2257C15.3658 14.799 15.5752 14.3021 15.6659 13.7755C15.7566 13.249 15.726 12.7076 15.5766 12.1956L14.7141 9.24027C14.319 9.47051 13.8593 9.55207 13.4128 9.4711L13.4174 9.48536L14.3231 12.5881C14.413 12.8955 14.4314 13.2206 14.3768 13.5368C14.3223 13.8531 14.1964 14.1514 14.0094 14.4076L12.752 16.1314C12.1338 16.9787 10.938 17.2211 9.92286 16.7146C7.70602 15.6093 5.03338 14.7566 2.73861 14.654C2.70747 14.6533 2.67694 14.645 2.64954 14.6296C3.00843 14.0749 3.58278 13.7986 4.14664 13.6682C4.48632 13.5917 4.83408 13.5606 5.18139 13.5759H5.1827C5.31435 13.5873 5.44625 13.5572 5.56108 13.4894C5.6759 13.4217 5.76828 13.3195 5.82609 13.1964C5.88389 13.0732 5.90441 12.9348 5.88496 12.7994C5.86551 12.6639 5.80699 12.5377 5.71709 12.4373L1.43274 7.64682C1.35822 7.5632 1.31527 7.45454 1.31177 7.34075C1.30827 7.22696 1.34446 7.11568 1.4137 7.02732C1.48294 6.93895 1.58059 6.87943 1.68874 6.85966C1.79689 6.83989 1.90829 6.8612 2.0025 6.91969L4.76029 9.96944C4.87892 10.1012 5.04316 10.1786 5.21689 10.1848C5.39061 10.191 5.55959 10.1253 5.68664 10.0024C5.8137 9.87938 5.88842 9.70911 5.89438 9.52901C5.90033 9.34891 5.83703 9.17373 5.7184 9.04202L3.06082 6.07849C3.00226 6.01391 2.93969 5.95335 2.87352 5.89722L1.58795 4.4769C1.51805 4.39584 1.48112 4.28989 1.4849 4.18123C1.48867 4.07257 1.53285 3.96964 1.60818 3.894C1.68352 3.81836 1.78417 3.77587 1.88904 3.77543C1.99392 3.775 2.09489 3.81665 2.17081 3.89166L6.08449 7.94826C6.14534 8.0113 6.21757 8.06129 6.29705 8.09539C6.37653 8.12949 6.46172 8.14702 6.54774 8.14699C6.63376 8.14696 6.71893 8.12936 6.79839 8.09521C6.87785 8.06105 6.95005 8.011 7.01085 7.94793C7.07165 7.88485 7.11988 7.80997 7.15277 7.72757C7.18566 7.64517 7.20257 7.55686 7.20254 7.46768C7.20251 7.37851 7.18554 7.29021 7.15259 7.20783C7.11964 7.12546 7.07137 7.05061 7.01052 6.98758L3.89975 3.76267C3.84956 3.71515 3.80918 3.65758 3.78105 3.59344C3.75292 3.52929 3.73762 3.4599 3.73608 3.38946C3.73454 3.31901 3.74679 3.24897 3.77208 3.18357C3.79738 3.11817 3.8352 3.05877 3.88326 3.00894C3.93133 2.95912 3.98863 2.91991 4.05172 2.89368C4.1148 2.86746 4.18236 2.85476 4.25031 2.85636C4.31826 2.85795 4.3852 2.87381 4.44707 2.90297C4.50895 2.93214 4.56448 2.974 4.61031 3.02603L5.32023 3.76199C5.35341 3.80272 5.38877 3.84255 5.42632 3.88148L8.04919 6.59108L8.06033 6.60263L8.70344 7.26934C8.82632 7.39664 8.99296 7.46812 9.16668 7.46806C9.34041 7.468 9.50699 7.39639 9.62979 7.269C9.75259 7.1416 9.82155 6.96885 9.82148 6.78875C9.82142 6.60865 9.75235 6.43596 9.62947 6.30865L6.29865 2.8563C6.22482 2.75022 6.19238 2.61914 6.20782 2.48931C6.22327 2.35949 6.28546 2.24051 6.38193 2.1562C6.47841 2.0719 6.60205 2.02849 6.72809 2.03468C6.85412 2.04087 6.97325 2.0962 7.0616 2.18959L8.10289 3.28945C7.95438 2.66147 7.96453 2.0044 8.13236 1.38166M8.64122 12.8861C9.38912 12.7313 10.0087 12.7435 10.528 12.9112C11.0375 13.0762 11.5005 13.4075 11.9196 13.986C11.9708 14.0587 12.0353 14.1201 12.1096 14.1667C12.1838 14.2133 12.2662 14.2441 12.3521 14.2574C12.4379 14.2707 12.5254 14.2662 12.6095 14.2441C12.6937 14.222 12.7727 14.1828 12.8421 14.1288C12.9115 14.0748 12.9698 14.007 13.0137 13.9294C13.0576 13.8518 13.0862 13.7659 13.0978 13.6767C13.1094 13.5876 13.1038 13.4969 13.0813 13.41C13.0588 13.3231 13.0199 13.2417 12.9668 13.1706C12.4023 12.3921 11.7197 11.8736 10.919 11.6152C10.1285 11.3592 9.27385 11.3707 8.3845 11.5541C8.30013 11.5715 8.21991 11.6061 8.14841 11.6557C8.07692 11.7053 8.01555 11.769 7.96781 11.8432C7.92007 11.9174 7.8869 12.0007 7.87019 12.0881C7.85348 12.1756 7.85355 12.2657 7.8704 12.3532C7.88726 12.4406 7.92057 12.5238 7.96843 12.5979C8.01629 12.672 8.07776 12.7356 8.14934 12.7851C8.22092 12.8346 8.3012 12.869 8.38559 12.8863C8.46999 12.9037 8.55685 12.9036 8.64122 12.8861Z" fill="#ED7028"/>
</svg>
