<svg xmlns="http://www.w3.org/2000/svg"  width="32" height="32"  viewBox="0 0 32 32">
<path fill="currentColor" d="M15.24 0.872c-2.411 0.455-3.96 2.816-3.408 5.196 0.527 2.271 2.82 3.708 5.103 3.198 1.481-0.331 2.678-1.424 3.137-2.863 0.154-0.484 0.206-0.833 0.201-1.364-0.013-1.639-0.933-3.081-2.426-3.801-0.61-0.294-1.019-0.39-1.734-0.407-0.407-0.010-0.667 0.003-0.873 0.042zM16.393 3.189c0.897 0.189 1.551 0.992 1.551 1.906 0 0.857-0.579 1.619-1.418 1.865-0.265 0.078-0.788 0.077-1.052-0.001-0.452-0.134-0.812-0.391-1.060-0.756-0.216-0.318-0.321-0.62-0.346-0.997-0.062-0.955 0.589-1.813 1.53-2.018 0.307-0.067 0.478-0.067 0.794-0zM14.487 10.218c-3.814 0.514-6.652 3.644-7.979 8.802-0.102 0.397-0.199 0.734-0.215 0.751-0.079 0.079-2.281 0.671-3.801 1.023-0.491 0.114-0.968 0.244-1.059 0.289-0.475 0.237-0.716 0.836-0.556 1.384 0.080 0.274 0.356 0.583 0.625 0.699 0.329 0.142 0.502 0.137 1.229-0.030 2.68-0.617 4.859-1.244 5.262-1.513 0.262-0.175 0.4-0.407 0.496-0.838 0.304-1.361 0.592-2.349 0.94-3.222 1.225-3.074 3.181-4.84 5.585-5.044 0.569-0.048 1.405-0.048 1.974 0 2.421 0.205 4.372 1.98 5.602 5.098 0.355 0.899 0.637 1.867 0.924 3.168 0.095 0.429 0.23 0.657 0.499 0.839 0.297 0.201 1.807 0.664 3.743 1.147 1.699 0.424 2.146 0.518 2.369 0.495 0.441-0.044 0.865-0.382 0.994-0.792 0.17-0.54-0.079-1.168-0.553-1.397-0.086-0.042-0.594-0.178-1.128-0.302-1.525-0.356-3.653-0.929-3.73-1.005-0.016-0.016-0.112-0.347-0.212-0.736-0.507-1.96-1.156-3.498-2.044-4.847-1.529-2.321-3.648-3.71-6.086-3.988-0.484-0.055-2.422-0.042-2.878 0.019zM11.702 19.537c-0.195 0.064-0.412 0.196-0.541 0.329-0.15 0.155-0.166 0.186-0.84 1.638-0.468 1.009-0.49 1.047-0.608 1.076-0.693 0.17-1.974 0.646-2.74 1.019-0.961 0.468-1.642 0.929-2.226 1.511-0.894 0.89-1.325 1.902-1.254 2.94 0.114 1.647 1.25 2.754 3.143 3.061 0.458 0.074 4.077 0.078 4.283 0.004 0.073-0.026 0.809-0.423 1.635-0.881l1.502-0.834 1.502 0.834c0.826 0.459 1.562 0.855 1.635 0.881 0.21 0.075 7.705 0.071 8.17-0.004 1.628-0.264 2.692-1.112 3.050-2.431 0.117-0.432 0.118-1.177 0.002-1.645-0.442-1.777-2.334-3.255-5.445-4.252-0.288-0.092-0.579-0.18-0.646-0.194s-0.146-0.063-0.174-0.107c-0.028-0.044-0.299-0.614-0.602-1.267-0.598-1.29-0.687-1.424-1.055-1.605-0.144-0.071-0.237-0.087-0.495-0.087-0.271 0-0.345 0.015-0.505 0.1-0.487 0.258-0.749 0.81-0.622 1.313 0.061 0.244 1.443 3.193 1.569 3.35 0.18 0.223 0.4 0.331 1 0.488 2.332 0.611 4.121 1.604 4.593 2.549 0.113 0.225 0.133 0.304 0.132 0.513-0.001 0.338-0.093 0.531-0.32 0.675-0.219 0.139-0.553 0.251-0.894 0.299-0.158 0.023-1.608 0.038-3.671 0.038l-3.409 0.001-0.749-0.416c-0.412-0.229-0.749-0.426-0.749-0.439s0.606-0.409 1.347-0.88c0.811-0.516 1.401-0.916 1.481-1.005 0.209-0.231 0.29-0.447 0.29-0.774 0-0.455-0.226-0.827-0.629-1.040-0.164-0.086-0.234-0.1-0.526-0.1-0.257-0-0.367 0.016-0.467 0.070-0.072 0.038-1.093 0.682-2.269 1.429-1.691 1.076-2.475 1.547-3.752 2.257l-1.615 0.898-1.462-0.001c-1.51-0.001-1.824-0.022-2.213-0.151-0.559-0.184-0.748-0.425-0.717-0.913 0.023-0.356 0.18-0.65 0.538-1.009 0.773-0.773 2.325-1.517 4.18-2.003 0.599-0.157 0.82-0.265 0.999-0.486 0.096-0.119 1.451-2.977 1.557-3.284 0.060-0.175 0.055-0.476-0.013-0.704-0.072-0.241-0.337-0.542-0.594-0.672-0.204-0.104-0.624-0.151-0.808-0.090z"></path>
</svg>