<svg width="32" height="32" viewBox="0 0 32 32" fill="none" xmlns="http://www.w3.org/2000/svg">
<path fill="currentColor" d="M24.853 19.448c-0.385 0.373-0.562 0.913-0.474 1.442l1.321 7.312c0.112 0.62-0.15 1.247-0.669 1.605-0.508 0.371-1.184 0.416-1.739 0.119l-6.582-3.433c-0.229-0.122-0.483-0.187-0.743-0.195h-0.403c-0.14 0.021-0.276 0.066-0.401 0.134l-6.584 3.45c-0.325 0.163-0.694 0.221-1.055 0.163-0.88-0.166-1.467-1.005-1.323-1.889l1.323-7.312c0.088-0.534-0.089-1.076-0.474-1.455l-5.367-5.202c-0.449-0.435-0.605-1.089-0.4-1.679 0.199-0.589 0.707-1.018 1.321-1.115l7.387-1.072c0.562-0.058 1.055-0.4 1.308-0.905l3.255-6.673c0.077-0.149 0.177-0.285 0.297-0.401l0.134-0.104c0.070-0.077 0.15-0.141 0.239-0.193l0.162-0.059 0.253-0.104h0.626c0.559 0.058 1.051 0.392 1.308 0.892l3.298 6.643c0.238 0.486 0.7 0.823 1.234 0.905l7.386 1.072c0.624 0.089 1.146 0.52 1.353 1.115 0.195 0.596 0.027 1.25-0.431 1.679l-5.559 5.261z"></path>
</svg>