<svg width="24" height="24" viewBox="0 0 24 24" fill="none" xmlns="http://www.w3.org/2000/svg">
<path d="M12.5 8.88977V18.4998M12.5 8.88977V5.57632C12.5 5.36898 12.5 5.2653 12.5347 5.17709C12.5653 5.09919 12.615 5.03023 12.6792 4.97654C12.752 4.91573 12.8503 4.88294 13.047 4.81737L17.447 3.35071C17.8025 3.23221 17.9803 3.17295 18.1218 3.20848C18.2456 3.23958 18.3529 3.31689 18.4216 3.42455C18.5 3.54755 18.5 3.73492 18.5 4.10965V7.42311C18.5 7.63045 18.5 7.73412 18.4653 7.82234C18.4347 7.90024 18.385 7.96919 18.3208 8.02289C18.248 8.0837 18.1497 8.11648 17.953 8.18205L13.553 9.64872C13.1975 9.76722 13.0197 9.82647 12.8782 9.79095C12.7544 9.75985 12.6471 9.68254 12.5784 9.57488C12.5 9.45188 12.5 9.26451 12.5 8.88977ZM12.5 18.4998C12.5 19.8805 10.933 20.9998 9 20.9998C7.067 20.9998 5.5 19.8805 5.5 18.4998C5.5 17.119 7.067 15.9998 9 15.9998C10.933 15.9998 12.5 17.119 12.5 18.4998Z" stroke="currentColor" stroke-width="1.5" stroke-linecap="round" stroke-linejoin="round"/>
</svg>
