<svg width="94" height="712" viewBox="0 0 94 712" fill="none" xmlns="http://www.w3.org/2000/svg">
<g clip-path="url(#clip0_969_17200)">
<path d="M42.46 4.42C43.6805 4.42 44.67 3.43055 44.67 2.21C44.67 0.989451 43.6805 0 42.46 0C41.2394 0 40.25 0.989451 40.25 2.21C40.25 3.43055 41.2394 4.42 42.46 4.42Z" fill="#D8D8D8"/>
<path d="M42.46 14.05C43.6805 14.05 44.67 13.0606 44.67 11.84C44.67 10.6195 43.6805 9.63 42.46 9.63C41.2394 9.63 40.25 10.6195 40.25 11.84C40.25 13.0606 41.2394 14.05 42.46 14.05Z" fill="#D8D8D8"/>
<path d="M42.46 23.67C43.6805 23.67 44.67 22.6805 44.67 21.46C44.67 20.2394 43.6805 19.25 42.46 19.25C41.2394 19.25 40.25 20.2394 40.25 21.46C40.25 22.6805 41.2394 23.67 42.46 23.67Z" fill="#D8D8D8"/>
<path d="M48.8496 704.21C50.0702 704.21 51.0597 703.221 51.0597 702C51.0597 700.78 50.0702 699.79 48.8496 699.79C47.6291 699.79 46.6396 700.78 46.6396 702C46.6396 703.221 47.6291 704.21 48.8496 704.21Z" fill="#D8D8D8"/>
<path d="M48.8496 711.71C50.0702 711.71 51.0597 710.721 51.0597 709.5C51.0597 708.28 50.0702 707.29 48.8496 707.29C47.6291 707.29 46.6396 708.28 46.6396 709.5C46.6396 710.721 47.6291 711.71 48.8496 711.71Z" fill="#D8D8D8"/>
<path d="M48.8504 695.25C48.8504 695.25 48.8104 695.25 48.7904 695.25C48.5204 695.23 48.2804 695.1 48.1304 694.88C43.7204 688.55 39.3904 683.09 35.5804 678.28C25.1404 665.1 17.6004 655.58 18.3104 641.63C19.2104 632.23 25.3504 624.85 34.7204 621.87C43.8804 618.95 53.8304 621.02 58.9304 626.92C65.1204 634.84 64.3204 644.95 57.0104 651.55C53.1004 655.05 47.0404 656.22 41.9204 654.48C37.8704 653.1 35.1204 650.04 34.3704 646.08C33.6404 641.55 34.7204 637.74 37.4104 635.33C39.9604 633.05 43.6804 632.37 47.6204 633.47C51.8004 634.63 53.9604 637.75 53.4104 641.8C52.5804 645.63 49.6304 647.45 45.0804 646.97L45.2604 645.23C48.9004 645.6 51.0604 644.35 51.6904 641.49C52.2904 637.08 48.7204 635.58 47.1504 635.15C43.7904 634.22 40.6604 634.76 38.5704 636.63C36.3404 638.63 35.4504 641.88 36.0804 645.78C36.7104 649.13 38.9804 651.63 42.4704 652.82C46.9404 654.34 52.4304 653.28 55.8304 650.24C62.5304 644.2 63.2304 635.27 57.5704 628.03C52.9504 622.69 43.7604 620.82 35.2404 623.54C26.4304 626.35 20.8904 632.99 20.0504 641.77C19.3804 655.02 26.7504 664.33 36.9504 677.2C40.6004 681.81 44.7104 687 48.9404 692.99C68.7004 671.05 76.8304 652.2 73.8004 635.39C72.0404 624.78 62.6504 611.3 49.2904 600.19C45.9804 597.44 42.6104 594.98 39.2904 592.87C32.5404 598.14 24.9804 602.5 15.1004 603.45C6.58039 604.23 2.95039 600.81 1.54039 598.7C-0.389612 595.82 -0.509612 591.99 1.22039 588.68C3.29039 584.72 7.53039 582.3 12.5404 582.21C20.1204 581.41 29.7404 584.87 39.1904 590.71C41.6704 588.73 44.0504 586.63 46.4004 584.54C48.3904 582.78 50.4004 581.01 52.4704 579.31C50.5404 577.69 48.6504 576 46.7804 574.33C44.2404 572.06 41.7404 569.83 39.2004 567.8C33.3004 573.41 26.5804 577.56 17.4204 576.39C5.78039 574.52 5.41039 568.3 5.58039 566.44C5.97039 562 10.7704 557.32 17.3104 557.32C17.3904 557.32 17.4704 557.32 17.5504 557.32C25.8604 557.01 32.7504 560.66 39.0704 565.49C41.0504 563.52 42.9804 561.37 44.9304 559.19C46.6304 557.29 48.3404 555.38 50.1204 553.56C47.9604 551.53 45.9704 549.35 44.0504 547.24C42.9604 546.04 41.8704 544.85 40.7804 543.72C36.3004 547.38 30.9904 550.05 24.1104 550.05C24.0204 550.05 23.9304 550.05 23.8404 550.04C15.7704 548.75 13.1704 544.3 13.3904 540.89C13.6404 537.03 17.3504 533.02 23.9504 532.82H24.1204C31.0804 532.82 36.1404 536.55 40.9004 541.33C43.6704 538.86 46.1604 536 48.6204 533.16C49.0704 532.65 49.5104 532.13 49.9604 531.63C41.6804 523.26 41.5804 507.75 41.5804 507.07V31.6899H43.3304V507.05C43.3304 507.7 43.4204 522.43 51.1204 530.3C56.0504 524.8 61.0704 520.18 68.1904 520.08C72.8804 519.99 76.9204 523.34 77.2404 527.49C77.5204 531.08 74.8504 535.36 66.4804 536.56C60.4004 537.43 55.2804 536.17 51.2404 532.79C50.8104 533.28 50.3704 533.78 49.9404 534.29C47.5204 537.07 44.9804 539.99 42.1104 542.55C43.1904 543.68 44.2604 544.85 45.3404 546.03C47.2904 548.17 49.2604 550.32 51.3504 552.3C57.0104 546.74 63.4004 542.26 72.0504 542.01C79.9904 541.75 84.8604 546.71 85.3904 551.51C85.8204 555.39 83.4504 560.46 75.3704 561.99C64.7404 563.88 57.4004 560 51.4104 554.72C49.6404 556.53 47.9204 558.44 46.2304 560.34C44.3404 562.45 42.4404 564.57 40.4504 566.56C43.0104 568.6 45.4904 570.82 47.9404 573.01C49.8904 574.75 51.8504 576.5 53.8604 578.18C60.9304 572.58 68.7704 568.06 79.0804 568.01C86.0804 568.04 92.3504 572.65 93.3604 578.51C93.7604 580.87 93.7104 586.7 84.5404 589.98C84.5004 589.99 84.4604 590 84.4204 590.01C71.7004 592.61 62.3204 587.32 53.8404 580.43C51.7304 582.15 49.6604 583.99 47.5604 585.84C45.3304 587.81 43.0804 589.79 40.7504 591.68C57.3904 602.46 73.0804 620.36 75.5204 635.07C78.6904 652.65 70.1804 672.24 49.5004 694.96C49.3304 695.14 49.1004 695.25 48.8504 695.25ZM14.6504 583.84C13.9604 583.84 13.2904 583.87 12.6404 583.94C8.20039 584.02 4.53039 586.09 2.76039 589.48C1.33039 592.22 1.42039 595.37 2.99039 597.71C5.06039 600.79 9.30039 602.21 14.9304 601.69C24.1104 600.81 31.2704 596.8 37.6904 591.87C29.2104 586.73 21.0504 583.84 14.6504 583.84ZM55.2404 579.31C63.3104 585.8 72.2104 590.7 84.0104 588.31C89.5504 586.31 92.3304 582.85 91.6304 578.8C90.8904 574.47 85.8804 569.78 79.0804 569.76C69.3804 569.82 62.0804 573.92 55.2404 579.31ZM17.3504 559.06C11.7204 559.06 7.65039 562.92 7.32039 566.58C6.97039 570.53 10.8404 573.55 17.6704 574.64C26.0604 575.71 32.2004 572.01 37.8104 566.7C31.7404 562.08 25.3604 558.78 17.5604 559.06C17.4904 559.06 17.4204 559.06 17.3504 559.06ZM52.6504 553.5C58.3604 558.54 65.1404 562.03 75.0604 560.28C81.9504 558.98 84.0104 555 83.6504 551.72C83.2104 547.7 78.9704 543.55 72.1104 543.78C64.1004 544.01 58.0504 548.23 52.6504 553.51V553.5ZM24.0504 548.28H24.1104C30.4704 548.28 35.3604 545.88 39.5704 542.45C35.1004 537.99 30.3904 534.54 24.1404 534.54C24.0904 534.54 24.0404 534.54 23.9904 534.54C18.4404 534.71 15.3304 537.9 15.1404 540.97C14.9604 543.77 17.2104 547.16 24.0604 548.27L24.0504 548.28ZM52.4104 531.49C56.0404 534.51 60.6904 535.64 66.2404 534.84C73.4104 533.81 75.7204 530.44 75.5004 527.64C75.2804 524.83 72.4804 521.84 68.3404 521.84C68.3004 521.84 68.2604 521.84 68.2204 521.84C61.8104 521.93 57.0804 526.29 52.4104 531.49Z" fill="#D8D8D8"/>
</g>
<defs>
<clipPath id="clip0_969_17200">
<rect width="93.48" height="711.71" fill="white"/>
</clipPath>
</defs>
</svg>
