<svg width="119" height="51" viewBox="0 0 119 51" fill="none" xmlns="http://www.w3.org/2000/svg">
<path d="M8.69343 20.1395C8.69343 20.8214 8.81789 21.303 9.06682 21.5844C9.31574 21.8658 9.72701 22.0065 10.3006 22.0065V24.6689H10.1058C8.38497 24.6689 7.4055 24.0303 7.1674 22.7532C6.9293 23.1104 6.5992 23.381 6.17711 23.565C5.76584 23.7489 5.27881 23.8409 4.71602 23.8409C3.79607 23.8409 3.08718 23.6028 2.58932 23.1266C2.10229 22.6396 1.85878 21.9361 1.85878 21.0162C1.85878 19.0572 2.41616 17.8938 3.53091 17.5258C4.64567 17.1578 5.50068 16.8494 6.09594 16.6004C6.69119 16.3407 7.12952 16.108 7.41091 15.9024C7.69231 15.6859 7.91418 15.437 8.07652 15.1556L9.53761 16.2433C9.40774 16.5355 9.26163 16.7898 9.09928 17.0063C8.94776 17.2227 8.74754 17.4284 8.49861 17.6232C8.62849 17.9803 8.69343 18.4457 8.69343 19.0193V20.1395ZM4.97577 21.3084C5.59267 21.3084 6.02559 21.1785 6.27451 20.9188C6.53426 20.6482 6.66414 20.1882 6.66414 19.5388V18.5972C5.97147 18.8786 5.05153 19.1979 3.9043 19.5551C3.85019 19.7715 3.82313 20.0313 3.82313 20.3343C3.82313 20.6482 3.92054 20.8917 4.11535 21.0649C4.32098 21.2272 4.60779 21.3084 4.97577 21.3084ZM20.9354 22.0876C21.2925 22.0335 21.8228 22.0065 22.5263 22.0065V24.6689C21.4549 24.6689 20.6377 24.6418 20.075 24.5877C19.523 24.5228 19.0143 24.4091 18.5489 24.2468C18.1809 24.3658 17.629 24.4687 16.893 24.5552C16.1679 24.631 15.5023 24.6689 14.8962 24.6689H10.3019C10.1828 24.6689 10.1017 24.5823 10.0584 24.4091C10.0043 24.2251 9.9772 23.868 9.9772 23.3377C9.9772 22.8073 10.0043 22.4556 10.0584 22.2824C10.1017 22.0985 10.1828 22.0065 10.3019 22.0065H11.5682C11.5573 21.9415 11.5519 21.8441 11.5519 21.7142C11.5519 21.487 11.5682 21.2759 11.6006 21.0811C11.6331 20.8863 11.671 20.7023 11.7143 20.5291C11.79 20.1828 11.8442 19.8689 11.8766 19.5875C11.9199 19.3061 11.9416 18.9328 11.9416 18.4674V16.6654C11.9416 15.9943 11.9145 15.345 11.8604 14.7172C11.8171 14.0895 11.7467 13.5863 11.6493 13.2075L13.7436 12.4282C13.9925 13.0126 14.117 14.2032 14.117 15.9998V17.4284C14.117 17.7314 14.0791 18.0723 14.0033 18.4511C14.5661 17.9749 15.3237 17.5799 16.2761 17.266C17.2394 16.9413 18.1539 16.779 19.0197 16.779C19.3877 16.779 19.7557 16.9684 20.1237 17.3472C20.5025 17.7152 20.8163 18.1968 21.0652 18.7921C21.3142 19.3765 21.4386 19.9772 21.4386 20.5941C21.4386 21.2218 21.2709 21.7197 20.9354 22.0876ZM15.2696 22.0714C16.3194 22.0714 17.1257 22.0281 17.6885 21.9415C18.2513 21.8549 18.6463 21.7251 18.8736 21.5519C19.1009 21.3679 19.2145 21.119 19.2145 20.8051C19.2145 20.4696 19.1334 20.1449 18.971 19.8311C18.8087 19.5172 18.6139 19.2791 18.3866 19.1167C17.6614 19.1167 16.9255 19.2412 16.1787 19.4901C15.4428 19.7391 14.8313 20.0421 14.3442 20.3993C13.868 20.7564 13.6299 21.0811 13.6299 21.3733C13.6299 21.6331 13.749 21.8171 13.9871 21.9253C14.236 22.0227 14.6635 22.0714 15.2696 22.0714ZM31.0969 22.0065V24.6689H28.6131C28.191 24.6689 27.758 24.631 27.3143 24.5552C26.8814 24.4795 26.5297 24.3821 26.2591 24.263C25.5556 24.5336 24.6898 24.6689 23.6616 24.6689H22.5252C22.3953 24.6689 22.3087 24.5607 22.2654 24.3442C22.2221 24.1169 22.2005 23.7489 22.2005 23.2403C22.2005 22.7641 22.2276 22.4394 22.2817 22.2662C22.325 22.093 22.4061 22.0065 22.5252 22.0065H23.6616C23.5642 21.8008 23.5155 21.5357 23.5155 21.211C23.5155 20.9729 23.548 20.6969 23.6129 20.383C23.6778 20.0692 23.7806 19.6308 23.9213 19.068L24.2136 17.8342C24.2677 17.542 24.5382 17.3039 25.0253 17.1199C25.5123 16.9359 26.1292 16.8439 26.876 16.8439C27.8717 16.8439 28.6618 17.1362 29.2462 17.7206C29.8306 18.305 30.1228 19.0789 30.1228 20.0421C30.1228 20.843 29.9172 21.4978 29.5059 22.0065H31.0969ZM26.4701 22.0227C27.0004 21.9469 27.4117 21.7575 27.7039 21.4545C28.007 21.1406 28.1585 20.7835 28.1585 20.383C28.1585 19.9501 28.0232 19.6254 27.7526 19.409C27.4929 19.1925 27.1195 19.0843 26.6325 19.0843C26.297 19.0843 26.0372 19.1222 25.8532 19.1979L25.7396 19.6525C25.6638 19.9339 25.6043 20.1828 25.561 20.3993C25.5177 20.6049 25.4961 20.7781 25.4961 20.9188C25.4961 21.4924 25.8208 21.8603 26.4701 22.0227ZM24.246 13.8731C24.3759 13.7324 24.5761 13.6295 24.8467 13.5646C25.1173 13.4889 25.5177 13.451 26.048 13.451H29.3436V15.3342H26.048C25.3554 15.3342 24.8521 15.4045 24.5382 15.5452L24.246 13.8731ZM35.8425 22.185C35.8425 23.04 35.5124 23.6678 34.8522 24.0682C34.2029 24.4687 33.1206 24.6689 31.6054 24.6689H31.1021C30.9831 24.6689 30.9019 24.5823 30.8586 24.4091C30.8045 24.2251 30.7774 23.868 30.7774 23.3377C30.7774 22.8073 30.8045 22.4556 30.8586 22.2824C30.9019 22.0985 30.9831 22.0065 31.1021 22.0065H31.8164C32.7688 22.0065 33.4236 21.9415 33.7808 21.8116C33.7808 21.7359 33.7537 21.5194 33.6996 21.1623C33.6455 20.7943 33.586 20.3722 33.521 19.896C33.4669 19.409 33.4398 18.9869 33.4398 18.6297C33.4398 18.2942 33.4561 18.0236 33.4886 17.818L35.6152 17.4771V18.094C35.6152 18.8841 35.664 19.8635 35.7614 21.0324C35.8155 21.5519 35.8425 21.9361 35.8425 22.185ZM32.8392 16.1946V14.0354H35.2094V16.1946H32.8392ZM53.0101 22.0065V24.6689H52.8477C52.2416 24.6689 51.7871 24.5661 51.484 24.3604V24.5877C51.484 25.9081 50.9645 26.9255 49.9255 27.6398C48.8974 28.3649 47.3768 28.7275 45.3637 28.7275C42.1493 28.7275 40.5421 27.4774 40.5421 24.9773C40.5421 24.5444 40.58 24.1223 40.6557 23.7111C40.7423 23.2998 40.8668 22.7641 41.0291 22.1039C41.159 21.6385 41.2564 21.2543 41.3214 20.9512C41.3863 20.6482 41.4242 20.356 41.435 20.0746L43.2532 19.9447C43.2857 20.1179 43.3019 20.291 43.3019 20.4642C43.3019 20.8863 43.2045 21.4491 43.0097 22.1526C42.9881 22.2283 42.9448 22.4069 42.8799 22.6883C42.8149 22.9697 42.7662 23.2403 42.7337 23.5C42.7013 23.7489 42.685 23.9816 42.685 24.1981C42.685 24.8042 42.9177 25.2641 43.3831 25.578C43.8593 25.9027 44.6169 26.065 45.6559 26.065C46.8356 26.065 47.7447 25.9189 48.3833 25.6267C49.0327 25.3453 49.3573 24.9882 49.3573 24.5552C49.3573 23.6569 49.1788 21.8495 48.8216 19.133L51.1106 18.581L51.3542 20.6752C51.4083 21.1406 51.549 21.4815 51.7763 21.698C52.0144 21.9036 52.3715 22.0065 52.8477 22.0065H53.0101ZM44.6169 18.7271V16.568H46.9871V18.7271H44.6169ZM57.7525 22.185C57.7525 23.04 57.4224 23.6678 56.7622 24.0682C56.1128 24.4687 55.0306 24.6689 53.5154 24.6689H53.0121C52.893 24.6689 52.8119 24.5823 52.7686 24.4091C52.7145 24.2251 52.6874 23.868 52.6874 23.3377C52.6874 22.8073 52.7145 22.4556 52.7686 22.2824C52.8119 22.0985 52.893 22.0065 53.0121 22.0065H53.7264C54.6788 22.0065 55.3336 21.9415 55.6908 21.8116C55.6908 21.7359 55.6637 21.5194 55.6096 21.1623C55.5555 20.7943 55.4959 20.3722 55.431 19.896C55.3769 19.409 55.3498 18.9869 55.3498 18.6297C55.3498 18.2942 55.3661 18.0236 55.3985 17.818L57.5252 17.4771V18.094C57.5252 18.8841 57.5739 19.8635 57.6713 21.0324C57.7255 21.5519 57.7525 21.9361 57.7525 22.185ZM52.4114 27.0391C52.5413 26.8984 52.7415 26.7902 53.0121 26.7144C53.2827 26.6495 53.6831 26.617 54.2134 26.617H57.509V28.5002H54.2134C53.5208 28.5002 53.0175 28.5705 52.7036 28.7112L52.4114 27.0391ZM62.0475 20.6428C62.0475 21.5844 62.0042 22.3744 61.9176 23.013C61.831 23.6515 61.6849 24.2576 61.4793 24.8312L59.5961 24.328C59.6935 23.8734 59.7639 23.3593 59.8072 22.7857C59.8505 22.2013 59.8721 21.4491 59.8721 20.5291C59.8721 19.4144 59.8018 16.8277 59.6611 12.7691L62.0475 12.4282V20.6428Z" fill="currentColor"/>
<path d="M3.38159 39.5043V31.9283H4.40976V39.5043H3.38159ZM8.31023 39.5043V33.8764H9.25182V34.818C9.45384 34.515 9.70999 34.2625 10.0202 34.0604C10.3377 33.8512 10.7129 33.7466 11.1458 33.7466C11.7808 33.7466 12.2534 33.9378 12.5636 34.3202C12.8811 34.7026 13.0398 35.2077 13.0398 35.8354V39.5043H12.0658V35.9436C12.0658 35.5396 11.9684 35.2149 11.7735 34.9695C11.586 34.7242 11.3226 34.6016 10.9835 34.6016C10.6516 34.6016 10.3377 34.7206 10.0419 34.9587C9.74606 35.1896 9.49353 35.4638 9.28429 35.7813V39.5043H8.31023ZM16.8797 39.5043V31.9283H18.2434L21.5877 38.2272V31.9283H22.5618V39.5043H21.2197L17.8538 33.2487V39.5043H16.8797ZM28.8291 39.6342C28.2951 39.6342 27.8153 39.5115 27.3896 39.2662C26.9639 39.0137 26.6284 38.6674 26.3831 38.2272C26.145 37.7799 26.0259 37.2676 26.0259 36.6904C26.0259 36.0843 26.1486 35.5612 26.3939 35.1211C26.6392 34.6809 26.9747 34.3418 27.4004 34.1037C27.8261 33.8656 28.3023 33.7466 28.8291 33.7466C29.3558 33.7466 29.8284 33.8656 30.2468 34.1037C30.6725 34.3418 31.0081 34.6809 31.2534 35.1211C31.5059 35.554 31.6322 36.0699 31.6322 36.6687C31.6322 37.2676 31.5095 37.7907 31.2642 38.2381C31.0189 38.6782 30.6834 39.0209 30.2577 39.2662C29.8392 39.5115 29.363 39.6342 28.8291 39.6342ZM28.8291 38.7684C29.3991 38.7684 29.8428 38.5772 30.1603 38.1948C30.4777 37.8051 30.6365 37.3037 30.6365 36.6904C30.6365 36.3152 30.5571 35.9725 30.3984 35.6622C30.2396 35.3447 30.0232 35.0922 29.749 34.9046C29.482 34.7098 29.1754 34.6124 28.8291 34.6124C28.259 34.6124 27.8153 34.8 27.4978 35.1752C27.1804 35.5504 27.0216 36.0482 27.0216 36.6687C27.0216 37.0439 27.101 37.3939 27.2597 37.7186C27.4185 38.036 27.6313 38.2922 27.8983 38.487C28.1725 38.6746 28.4827 38.7684 28.8291 38.7684ZM37.0507 42.0152C36.7188 42.0152 36.3941 41.9756 36.0767 41.8962C35.7664 41.8168 35.4886 41.6978 35.2433 41.539L35.6004 40.6949C35.7736 40.8319 35.9756 40.9438 36.2065 41.0304C36.4374 41.1242 36.7188 41.1711 37.0507 41.1711C37.563 41.1711 37.9634 41.034 38.2521 40.7598C38.5479 40.4928 38.6958 40.0635 38.6958 39.4719V38.7792C38.5515 38.9524 38.3422 39.1183 38.0681 39.2771C37.8011 39.4286 37.48 39.5043 37.1048 39.5043C36.6791 39.5043 36.2751 39.3961 35.8927 39.1796C35.5103 38.956 35.2 38.6313 34.9619 38.2056C34.7238 37.7799 34.6047 37.2676 34.6047 36.6687C34.6047 36.106 34.7202 35.6045 34.9511 35.1644C35.1892 34.7242 35.5066 34.3779 35.9035 34.1254C36.3003 33.8728 36.7369 33.7466 37.2131 33.7466C37.5305 33.7466 37.8191 33.8007 38.0789 33.9089C38.3386 34.0171 38.5623 34.1506 38.7499 34.3094V33.8764H39.6374V39.3745C39.6374 39.995 39.5292 40.5 39.3127 40.8897C39.0962 41.2793 38.7932 41.5643 38.4036 41.7447C38.0212 41.9251 37.5702 42.0152 37.0507 42.0152ZM37.3213 38.6385C37.6099 38.6385 37.8696 38.5736 38.1005 38.4437C38.3314 38.3138 38.519 38.1623 38.6633 37.9891V35.0453C38.5046 34.9299 38.3134 34.8252 38.0897 34.7314C37.866 34.6376 37.6063 34.5907 37.3105 34.5907C37.0146 34.5907 36.7369 34.6701 36.4771 34.8289C36.2174 34.9876 36.0045 35.2185 35.8386 35.5215C35.6798 35.8173 35.6004 36.1817 35.6004 36.6146C35.6004 37.0259 35.6798 37.383 35.8386 37.6861C36.0045 37.9891 36.2174 38.2236 36.4771 38.3896C36.7369 38.5555 37.0182 38.6385 37.3213 38.6385ZM43.3709 39.5043V31.4954H44.3449V34.7747C44.5469 34.4789 44.8031 34.2336 45.1133 34.0388C45.4236 33.844 45.788 33.7466 46.2064 33.7466C46.8414 33.7466 47.314 33.9378 47.6242 34.3202C47.9417 34.7026 48.1005 35.2077 48.1005 35.8354V39.5043H47.1264V35.9436C47.1264 35.5396 47.0326 35.2149 46.845 34.9695C46.6574 34.7242 46.394 34.6016 46.0549 34.6016C45.723 34.6016 45.4056 34.7206 45.1025 34.9587C44.8067 35.1896 44.5542 35.4638 44.3449 35.7813V39.5043H43.3709ZM53.8019 39.6342C53.2608 39.6342 52.8315 39.4574 52.514 39.1039C52.2037 38.7431 52.0486 38.2308 52.0486 37.567V34.9263H51.0745V34.0821H52.0702L52.2759 32.3071H53.0227V34.0821H54.5812V34.9263H53.0227V37.6428C53.0227 38.0613 53.1092 38.3535 53.2824 38.5195C53.4628 38.6854 53.6756 38.7684 53.921 38.7684C54.1013 38.7684 54.2709 38.7395 54.4296 38.6818C54.5956 38.6241 54.7471 38.5555 54.8842 38.4762L55.1548 39.2554C55.0105 39.342 54.8157 39.425 54.5703 39.5043C54.325 39.5909 54.0689 39.6342 53.8019 39.6342ZM60.2299 39.6342C59.4218 39.6342 58.7797 39.3781 58.3035 38.8658C57.8345 38.3463 57.6 37.6212 57.6 36.6904C57.6 36.1276 57.7046 35.6261 57.9138 35.186C58.1303 34.7387 58.4297 34.3887 58.8121 34.1362C59.1945 33.8764 59.6383 33.7466 60.1434 33.7466C60.6845 33.7466 61.1318 33.8656 61.4854 34.1037C61.8462 34.3346 62.1167 34.6485 62.2971 35.0453C62.4775 35.4421 62.5677 35.8787 62.5677 36.3549C62.5677 36.6074 62.5569 36.8527 62.5352 37.0908H58.5957C58.6606 37.6175 58.8446 38.0288 59.1477 38.3246C59.4507 38.6205 59.8511 38.7684 60.349 38.7684C60.6737 38.7684 60.9659 38.7359 61.2256 38.671C61.4854 38.5988 61.7343 38.5086 61.9724 38.4004L62.1997 39.2338C61.94 39.3492 61.6477 39.443 61.323 39.5152C60.9984 39.5945 60.634 39.6342 60.2299 39.6342ZM58.5849 36.3008H61.6694C61.6694 35.7524 61.5323 35.3303 61.2581 35.0345C60.9839 34.7387 60.6051 34.5907 60.1217 34.5907C59.7032 34.5907 59.3569 34.7387 59.0827 35.0345C58.8085 35.3231 58.6426 35.7452 58.5849 36.3008Z" fill="currentColor"/>
<g clip-path="url(#clip0_10252_5315)">
<path d="M90.0565 49.9079C89.902 49.8878 89.7455 49.8726 89.5901 49.8468C87.7531 49.5387 85.9695 49.0407 84.2413 48.3444C76.8353 45.3595 71.2156 38.8794 69.3109 31.1249C68.9905 29.8199 68.7759 28.4996 68.6643 27.1603C68.5565 25.8658 68.5413 24.5704 68.6414 23.2759C69.0696 17.7669 71.063 12.8952 74.6692 8.70737C77.8682 4.99465 81.834 2.44001 86.5304 1.03009C87.7932 0.650426 89.0798 0.381416 90.3874 0.214477C91.8648 0.026552 93.346 -0.0459471 94.8349 0.0303678C100.429 0.315595 105.399 2.22728 109.698 5.80931C113.981 9.37703 116.767 13.8996 118.075 19.3237C118.392 20.6373 118.584 21.9699 118.68 23.3179C118.772 24.6066 118.771 25.8944 118.658 27.1794C118.206 32.3268 116.369 36.9258 113.102 40.9304C109.915 44.8367 105.898 47.5392 101.087 49.055C99.9023 49.428 98.6929 49.6951 97.4663 49.8878C97.4015 49.8983 97.3223 49.8649 97.2594 49.8335C97.1583 49.7829 97.0705 49.697 96.9656 49.6598C96.8397 49.616 96.7024 49.6026 96.5698 49.5873C96.4878 49.5778 96.4029 49.5921 96.3189 49.5912C96.0977 49.5892 96.0109 49.532 95.9908 49.304C95.9632 48.9864 95.966 48.6668 95.9622 48.3472C95.9613 48.2261 95.9756 48.1049 95.987 47.9838C96.0567 47.2273 96.1234 46.4708 96.1988 45.7144C96.2455 45.245 96.3142 44.7786 96.358 44.3092C96.4324 43.507 96.4906 42.7037 96.5641 41.9024C96.6356 41.1154 96.7176 40.3294 96.7949 39.5424C96.8292 39.1942 96.8626 38.847 96.896 38.4988C96.8988 38.4683 96.8979 38.4368 96.9055 38.4082C96.978 38.1134 97.0362 37.8139 97.1306 37.5258C97.2374 37.1976 97.2298 36.8657 97.2241 36.5318C97.2222 36.4173 97.2183 36.3038 97.2079 36.1893C97.1821 35.8993 97.2269 35.6389 97.4234 35.4014C97.5531 35.244 97.5979 35.037 97.6266 34.828C97.6666 34.5342 97.7286 34.2433 97.7858 33.9523C97.8125 33.8188 97.7954 33.6938 97.7315 33.5765C97.6409 33.4105 97.617 33.2321 97.617 33.0461C97.617 32.2381 97.6218 31.4292 97.6132 30.6212C97.6103 30.3493 97.5684 30.0774 97.5512 29.8056C97.5407 29.6386 97.535 29.4707 97.5369 29.3028C97.5445 28.6771 97.4682 28.058 97.4148 27.437C97.3738 26.96 97.3805 26.4792 97.3442 26.0013C97.3261 25.7685 97.2784 25.5338 97.2088 25.3116C97.1125 25.0035 96.895 24.8031 96.5831 24.6953C96.2093 24.5666 95.8382 24.4301 95.4748 24.2756C95.2955 24.1993 95.1277 24.0867 94.9693 23.9694C94.8358 23.8702 94.852 23.8101 94.9961 23.7166C95.6122 23.3188 95.9241 22.7493 95.9527 22.0195C95.9632 21.7381 95.9699 21.4567 95.9918 21.1763C96.0004 21.0647 96.0233 20.9445 96.0767 20.8481C96.2398 20.5514 96.1644 20.2853 95.9908 20.0344C95.8354 19.8093 95.6542 19.6013 95.4939 19.3791C95.3432 19.1692 95.1391 19.0757 94.8902 19.069C94.6765 19.0633 94.4619 19.049 94.2512 19.0709C94.1138 19.0852 93.9669 19.1358 93.8506 19.2102C93.5625 19.3953 93.2945 19.6118 93.0093 19.8007C92.6545 20.0354 92.4237 20.3511 92.335 20.767C92.2845 21.0046 92.232 21.243 92.2025 21.4844C92.1891 21.5931 92.2129 21.7152 92.2501 21.8202C92.3665 22.1417 92.4943 22.4593 92.625 22.776C92.6908 22.9353 92.8081 23.0508 92.9559 23.1442C93.099 23.2349 93.1057 23.3159 92.9578 23.3989C92.6927 23.5487 92.5058 23.7824 92.2797 23.9723C92.1309 24.0972 91.9573 24.2022 91.779 24.2832C91.4194 24.4473 91.0513 24.5942 90.684 24.7392C90.4561 24.8289 90.2777 24.9739 90.1318 25.1656C89.8352 25.5558 89.5529 25.9574 89.4728 26.4534C89.4127 26.8274 89.364 27.2071 89.3497 27.5858C89.3297 28.1181 89.3402 28.6504 89.4165 29.1807C89.4871 29.673 89.4441 30.17 89.3764 30.6613C89.3116 31.1296 89.3373 31.5875 89.4813 32.0378C89.7102 32.7551 89.9353 33.4735 90.1766 34.187C90.2367 34.3635 90.3435 34.5276 90.4446 34.6869C90.5286 34.8185 90.5009 34.9511 90.4799 35.0837C90.457 35.2335 90.4132 35.3804 90.3836 35.5301C90.3178 35.865 90.3435 36.1979 90.4199 36.527C90.4628 36.714 90.5372 36.8876 90.6869 37.0221C90.7308 37.0612 90.7661 37.1375 90.7642 37.1948C90.7556 37.3989 90.7422 37.605 90.7069 37.8062C90.664 38.0524 90.6907 38.2908 90.727 38.5331C90.8185 39.1561 90.809 39.7799 90.7041 40.3981C90.602 40.9981 90.4723 41.5924 90.3569 42.1905C90.2415 42.7877 90.1127 43.3829 90.0212 43.9839C89.9134 44.6975 89.8228 45.4158 89.7598 46.1341C89.7293 46.4871 89.7741 46.8476 89.7923 47.2044C89.8047 47.4543 89.8209 47.7052 89.8524 47.9542C89.8724 48.1116 89.9182 48.2661 89.9611 48.4207C90.0879 48.8814 90.0975 49.3527 90.0851 49.8258C90.0851 49.8468 90.0708 49.8678 90.0555 49.9098L90.0565 49.9079Z" fill="currentColor"/>
<path d="M92.2862 50.1244C92.3005 50.0967 92.3043 50.0824 92.3138 50.0729C92.641 49.7591 92.6543 49.3412 92.3272 49.0159C92.1698 48.8595 92.1126 48.6878 92.145 48.4798C92.1564 48.4064 92.187 48.3339 92.2203 48.2661C92.4073 47.8951 92.352 47.5564 92.0782 47.254C91.9237 47.0842 91.8226 46.8896 91.7931 46.6673C91.7454 46.3039 91.7292 45.9414 91.8493 45.5827C92.0687 44.9264 92.2919 44.2711 92.4836 43.6062C92.5971 43.2131 92.6352 42.7991 92.7373 42.4023C92.9233 41.6735 93.1283 40.9495 93.3334 40.2264C93.3658 40.1119 93.4364 40.007 93.4994 39.9039C93.5184 39.8725 93.5776 39.8429 93.61 39.8505C93.6415 39.8572 93.6758 39.9106 93.6834 39.9478C93.7073 40.0747 93.7206 40.2035 93.734 40.3323C93.7559 40.5364 93.7607 40.7434 93.7998 40.9437C93.8379 41.1374 93.816 41.3253 93.775 41.5085C93.7101 41.8004 93.7292 42.0808 93.8074 42.3651C93.9104 42.739 93.9228 43.113 93.7941 43.4869C93.6729 43.8399 93.6987 44.2043 93.7111 44.5706C93.7264 45.018 93.7111 45.4673 93.713 45.9156C93.7149 46.446 93.5852 46.9545 93.4545 47.4629C93.3906 47.711 93.4078 47.9533 93.4631 48.206C93.568 48.683 93.5842 49.1695 93.5385 49.657C93.5232 49.8153 93.5184 49.9746 93.5079 50.1559C93.0969 50.1969 92.6953 50.153 92.2852 50.1235L92.2862 50.1244Z" fill="currentColor"/>
</g>
<defs>
<clipPath id="clip0_10252_5315">
<rect width="50.1732" height="50.1732" fill="white" transform="translate(68.5747)"/>
</clipPath>
</defs>
</svg>
